<svg width="37" height="22" viewBox="0 0 37 22" fill="none" xmlns="http://www.w3.org/2000/svg">
<path id="Vector" fill-rule="evenodd" clip-rule="evenodd" d="M22.7941 6.37432C22.2681 7.05732 21.4271 7.97132 21.9601 8.85632C22.2121 9.27332 22.6761 9.53631 23.0501 9.83932C24.5562 11.0636 25.824 12.5548 26.7901 14.2383C27.7033 15.8234 28.3292 17.5574 28.6391 19.3603C27.9771 17.7683 27.1331 16.2503 26.0461 14.8903C25.3009 13.9473 24.4294 13.1114 23.4561 12.4063C22.5531 11.7603 21.3301 11.0003 20.2001 10.8343C19.6501 10.7543 19.3341 11.0083 18.8881 11.2783C18.2656 11.6574 17.5967 11.9546 16.8981 12.1623C15.4011 12.6107 13.8118 12.6532 12.2931 12.2853C9.74706 11.6503 7.70006 9.80931 6.70606 7.48631C10.1131 9.84631 14.3881 11.5813 18.4631 9.98631C18.6001 10.0323 18.7691 9.98132 18.8161 9.83932C18.8531 9.82332 18.8911 9.80931 18.9281 9.79132C19.1361 9.69631 19.0131 9.36131 18.8081 9.38331C18.7364 8.23332 18.5365 7.09493 18.2121 5.98932C21.6051 3.17431 25.7851 -0.0546846 30.4581 0.829315C28.5912 1.49884 26.8545 2.48679 25.3251 3.74932C24.3841 4.52932 23.5341 5.41232 22.7941 6.37432ZM11.9821 7.91632C12.2651 7.92932 12.2621 7.50531 11.9821 7.48932C9.90706 7.35331 8.45306 5.96531 7.24206 4.45231C9.44006 5.77731 11.9291 6.87232 14.4881 5.92232C14.6511 7.28232 14.6041 8.70031 14.8421 10.0053C12.9331 9.90331 11.0761 9.25931 9.34406 8.34531C10.2301 8.07131 11.0381 7.84332 11.9821 7.91632ZM14.3891 3.46832C14.3962 3.43562 14.3955 3.40169 14.3871 3.36931C15.0631 3.39531 15.7321 3.19632 16.2441 2.74632C16.7651 3.76532 17.2141 4.76832 17.5581 5.79832C17.5601 5.84832 17.5781 5.89632 17.6051 5.94032C17.992 7.1122 18.2167 8.3315 18.2731 9.56431C17.2596 9.89358 16.1972 10.0468 15.1321 10.0173C15.1387 10.0021 15.1427 9.98586 15.1441 9.96931C15.2141 8.61432 15.0991 7.20931 14.9711 5.85831C14.8921 5.02231 14.7311 4.22232 14.3891 3.46832ZM14.9231 1.80931L15.1881 1.81831C15.4371 1.84731 15.6811 1.89432 15.9221 1.96132C16.1861 1.95132 16.2471 2.00932 16.1061 2.13432C16.1011 2.39132 15.4911 2.63832 15.2731 2.72132C14.9197 2.86107 14.5348 2.90152 14.1601 2.83831C14.0411 2.12731 14.2961 1.78431 14.9231 1.80931ZM36.9351 3.48431C36.3071 2.78231 34.9731 2.81231 34.0941 2.79532C32.8048 2.76999 31.5175 2.91047 30.2641 3.21331C29.0221 3.51531 27.8381 3.98531 26.6631 4.47331C25.8471 4.81231 24.9281 5.14831 24.2071 5.69231C24.5741 5.29531 24.9631 4.91732 25.3701 4.55832C27.1981 2.95032 29.3821 1.78431 31.7451 1.11031C32.0801 1.01431 32.0591 0.573315 31.7451 0.467315C26.5041 -1.27069 21.7811 2.17331 17.9881 5.30731C17.6251 4.29531 17.1401 3.33131 16.5061 2.47731C16.8891 1.99331 16.6961 1.64231 16.0611 1.46931C15.2331 1.24331 14.1501 1.17732 13.5771 1.93232C13.1611 2.48032 13.2901 3.14032 13.8071 3.47232C14.1201 4.07732 14.3001 4.72631 14.4131 5.39431C11.5361 6.50031 8.74906 4.88432 6.39506 3.37032C6.20306 3.24632 5.92906 3.49832 6.07006 3.68632C7.24406 5.26632 8.56506 6.93231 10.4301 7.60831C10.0019 7.70747 9.59778 7.89068 9.24106 8.14731C9.22298 8.16109 9.20903 8.17957 9.20074 8.20073C9.19245 8.22189 9.19014 8.24493 9.19406 8.26731C8.1556 7.7006 7.15965 7.05925 6.21406 6.34831C5.98006 6.17331 5.66406 6.46131 5.73606 6.70631C6.28928 8.57298 7.44512 10.2039 9.02306 11.3443C7.17006 10.9043 4.95706 12.1793 3.43306 13.0393C2.56606 13.5283 1.88606 14.1313 1.39106 14.9833C0.870056 15.8763 0.193057 16.8833 0.0030569 17.9063C-0.0319431 18.0943 0.243057 18.2433 0.345057 18.0463C1.19306 16.4133 2.21306 14.7423 3.88206 13.7863C4.71798 13.3073 5.58413 12.883 6.47506 12.5163C7.43706 12.1213 8.44106 11.9693 9.45106 11.7413C9.46663 11.7374 9.48127 11.7304 9.49414 11.7208C9.50701 11.7112 9.51786 11.6991 9.52606 11.6853C11.9151 13.1993 15.0011 13.6183 17.8621 12.4523C18.4691 12.2043 19.0091 11.7243 19.6061 11.5033C20.3381 11.2333 21.2581 11.7793 21.8811 12.1053C23.0541 12.7213 24.0841 13.5603 24.9691 14.5253C26.8591 16.5873 28.0731 19.1673 28.8721 21.7933C28.9681 22.1053 29.4711 22.0533 29.4661 21.7153C29.3971 17.4253 27.5791 13.2333 24.4261 10.2213C24.0281 9.84132 23.6101 9.48531 23.1761 9.14631C22.7751 8.83431 22.6961 8.82531 22.6291 8.27831C22.5591 7.71331 22.7031 7.57431 23.0241 7.13031C23.2021 6.88331 23.3891 6.64231 23.5821 6.40631C23.6071 6.45731 23.6651 6.48831 23.7321 6.44831C25.6201 5.28031 27.7651 4.43531 29.9301 3.86631C31.0741 3.56631 32.2501 3.40532 33.4351 3.39132C34.0071 3.38432 34.5831 3.40331 35.1511 3.47331C35.7011 3.54331 36.1711 3.76332 36.7051 3.87032C36.9411 3.91832 37.0931 3.66031 36.9351 3.48431Z" fill="white"/>
</svg>
